# xmcd
#
# Track frame offsets: 
#        150
#        12899
#        31679
#        50004
#        68538
#        85112
#        104194
#        124391
#        140843
#        160178
#
# Disc length: 2403 seconds
#
# Revision: 0
# Processed by: cddbd v1.5.2PL0 Copyright (c) Steve Scherf et al.
# Submitted via: ExactAudioCopy v1.0b1
#
DISCID=8609610a
DTITLE=Roxie Randle  - Live at The French Quarter Cafe
DYEAR=2006
DGENRE=Country
TTITLE0=Welcome To My World
TTITLE1=Out On A Limb
TTITLE2=Where Does The Love Go
TTITLE3=If You Could Only See
TTITLE4=The Speed Of My Heart
TTITLE5=You Were Wrong
TTITLE6=As Far As I Can Go
TTITLE7=Where Did I Go Right
TTITLE8=I Can't Stay Here
TTITLE9=Missing You
EXTD=
EXTT0=
EXTT1=
EXTT2=
EXTT3=
EXTT4=
EXTT5=
EXTT6=
EXTT7=
EXTT8=
EXTT9=
PLAYORDER=
